<svg width="16" height="16" viewBox="0 0 16 16" fill="none" xmlns="http://www.w3.org/2000/svg">
<path d="M0.75293 1.0813L1.35293 3.0813M1.35293 3.0813L3.75293 11.0813H14.7529V5.0813C14.7529 3.97673 13.8575 3.0813 12.7529 3.0813H1.35293ZM8.75293 4.5813V9.5813M6.25293 7.0813H11.2529M12.7529 15.0813C12.2006 15.0813 11.7529 14.6336 11.7529 14.0813C11.7529 13.529 12.2006 13.0813 12.7529 13.0813C13.3052 13.0813 13.7529 13.529 13.7529 14.0813C13.7529 14.6336 13.3052 15.0813 12.7529 15.0813ZM4.75293 14.0813C4.75293 13.529 5.20064 13.0813 5.75293 13.0813C6.30521 13.0813 6.75293 13.529 6.75293 14.0813C6.75293 14.6336 6.30521 15.0813 5.75293 15.0813C5.20064 15.0813 4.75293 14.6336 4.75293 14.0813Z" stroke="white"/>
</svg>
