<svg width="71" height="16" viewBox="0 0 71 16" fill="none" xmlns="http://www.w3.org/2000/svg">
<path fill-rule="evenodd" clip-rule="evenodd" d="M54.9722 0.960693V13.2165H56.7007V8.81479C56.7777 8.07387 57.3665 7.4219 58.1862 7.4219C58.5709 7.41335 58.9434 7.55519 59.2218 7.81632C59.5003 8.07745 59.6621 8.43653 59.6717 8.81479V13.2165H61.3556V8.10308C61.1652 6.67566 60.1403 5.64925 58.6548 5.64925C57.9273 5.64046 57.2251 5.91159 56.698 6.40479V0.960693H54.9722Z" fill="white"/>
<path fill-rule="evenodd" clip-rule="evenodd" d="M0.604248 0.960693V13.2351H2.33415V8.83338C2.40977 8.09245 2.99991 7.44049 3.81962 7.44049C4.20423 7.43229 4.57649 7.57425 4.85489 7.8353C5.1333 8.09636 5.29518 8.45524 5.30509 8.83338V13.2351H6.98637V8.12166C6.79596 6.69425 5.77099 5.66784 4.28551 5.66784C3.55729 5.65877 2.8544 5.93045 2.32739 6.4247V0.960693H0.604248Z" fill="white"/>
<path fill-rule="evenodd" clip-rule="evenodd" d="M12.2892 7.3821C11.1427 7.3821 10.2136 8.32884 10.2136 9.496C10.2088 9.76873 10.2586 10.0397 10.3603 10.2935C10.462 10.5473 10.6136 10.7789 10.8063 10.9751C10.9991 11.1712 11.2292 11.3282 11.4837 11.4369C11.7381 11.5456 12.0118 11.6039 12.2892 11.6086C13.4344 11.6086 14.3635 10.6632 14.3635 9.496C14.3635 8.32884 13.4344 7.3821 12.2892 7.3821ZM16.0637 13.1767V5.81925H14.3756V6.5947C13.7207 6.02506 13.2048 5.68115 12.2771 5.68115C10.2082 5.68115 8.4729 7.40733 8.4729 9.50795C8.4729 11.6086 10.2082 13.3308 12.2771 13.3308C13.1981 13.3308 13.718 13.0174 14.3702 12.4557V13.1767H16.0637Z" fill="white"/>
<path fill-rule="evenodd" clip-rule="evenodd" d="M24.3664 13.1766L24.3543 8.29155C24.3219 6.83094 23.0619 5.65847 21.5184 5.65847C21.1359 5.65689 20.7569 5.73003 20.4033 5.87363C20.0498 6.01723 19.7288 6.22844 19.459 6.495V5.81648H17.8452V13.1766H19.5738L19.5819 8.85322C19.5819 8.07645 20.2706 7.44706 21.1214 7.44706C21.9721 7.44706 22.6608 8.07645 22.6608 8.85322V13.1766H24.3664Z" fill="white"/>
<path fill-rule="evenodd" clip-rule="evenodd" d="M31.651 10.7866C31.651 9.62078 30.7895 8.97811 29.5822 8.76565L28.4343 8.5293C27.9441 8.45096 27.3391 8.30755 27.3391 7.80829C27.3391 7.44446 27.828 7.14437 28.4316 7.14437C29.0353 7.14437 29.6132 7.60513 29.6132 7.96896H31.5038C31.2972 6.66901 30.0184 5.68774 28.4789 5.68774C26.7922 5.68774 25.5917 6.72478 25.6362 8.19867C25.6686 9.25297 26.8205 9.87041 28.09 10.1346L28.5072 10.2143C29.3999 10.3338 29.8982 10.5184 29.9225 10.9499C29.9522 11.4811 29.4606 11.8144 28.7341 11.813C27.9576 11.813 27.3364 11.3177 27.3364 10.7401H25.5295C25.5511 12.1888 27.0582 13.356 28.7395 13.356C30.4208 13.356 31.651 12.2472 31.651 10.7866Z" fill="white"/>
<path fill-rule="evenodd" clip-rule="evenodd" d="M38.5907 9.4589C38.578 9.85597 38.4466 10.2406 38.2129 10.5647C37.9793 10.8888 37.6537 11.138 37.2769 11.2813C36.9 11.4246 36.4886 11.4556 36.094 11.3704C35.6994 11.2852 35.339 11.0876 35.0579 10.8023C34.7767 10.517 34.5873 10.1566 34.5132 9.76602C34.4391 9.37549 34.4836 8.97215 34.6412 8.60635C34.7988 8.24055 35.0625 7.92849 35.3994 7.70913C35.7362 7.48977 36.1313 7.37282 36.5354 7.37289C36.8097 7.37704 37.0804 7.4343 37.3322 7.5414C37.584 7.64851 37.8118 7.80335 38.0027 7.99708C38.1936 8.1908 38.3438 8.41962 38.4446 8.67045C38.5455 8.92128 38.5952 9.1892 38.5907 9.4589ZM40.2369 5.82066H38.6636V6.55494C38.1235 5.98796 37.3659 5.65601 36.4152 5.65601C34.4314 5.65601 32.7515 7.45388 32.7515 9.40845C32.7515 11.4812 34.3909 13.1622 36.4152 13.1622C37.2578 13.1622 38.0694 12.6935 38.6771 12.0309C38.6771 12.0309 38.6771 12.1212 38.6771 12.1637C38.6833 12.6264 38.5446 13.0798 38.28 13.4625C38.0153 13.8451 37.6374 14.1386 37.1975 14.303C36.7576 14.4675 36.2769 14.4951 35.8206 14.382C35.3642 14.2689 34.9542 14.0206 34.6461 13.6708L32.8419 13.6787C33.3173 15.0185 34.7433 15.9931 36.4273 15.9931C38.3476 15.9931 40.2247 14.2231 40.2288 12.6975V12.6258L40.2369 5.82066Z" fill="white"/>
<path fill-rule="evenodd" clip-rule="evenodd" d="M45.6222 7.27858V5.65332C44.762 5.65332 44.0395 5.98926 43.7235 6.45002V5.82063H42.103V13.1768H43.8721V8.58251C43.9031 7.88009 44.6675 7.31178 45.6222 7.27858Z" fill="white"/>
<path fill-rule="evenodd" clip-rule="evenodd" d="M49.7393 7.37296C48.6035 7.37296 47.6839 8.32235 47.6839 9.49748C47.6839 10.6726 48.6035 11.622 49.7393 11.622C50.875 11.622 51.7933 10.6726 51.7933 9.49748C51.7933 8.32235 50.8736 7.37296 49.7393 7.37296ZM53.5123 9.49748C53.5123 7.38623 51.8284 5.67334 49.7528 5.67334C47.6771 5.67334 45.9932 7.38623 45.9932 9.49748C45.9932 11.6087 47.6771 13.3216 49.7528 13.3216C51.8284 13.3216 53.5123 11.6034 53.5123 9.49217V9.49748Z" fill="white"/>
<path fill-rule="evenodd" clip-rule="evenodd" d="M62.769 9.49603C62.769 11.6113 64.4328 13.3255 66.4841 13.3255C68.0641 13.3255 69.4131 12.315 69.9506 10.8796H68.1113C67.9172 11.1244 67.6686 11.3221 67.3847 11.4577C67.1007 11.5933 66.7889 11.6631 66.4733 11.6617C66.0182 11.6703 65.5735 11.5273 65.2116 11.2558C64.8497 10.9843 64.5918 10.6004 64.48 10.1666H70.1721C70.1995 9.94637 70.2081 9.72429 70.1978 9.50267C70.1978 7.38743 68.5354 5.67188 66.4841 5.67188C64.4328 5.67188 62.769 7.38079 62.769 9.49603ZM66.5124 7.3144C66.0953 7.31006 65.687 7.433 65.3438 7.66628C65.0006 7.89956 64.7394 8.23171 64.5962 8.617H68.4381C68.1978 7.86545 67.4267 7.3144 66.5124 7.3144Z" fill="white"/>
</svg>
